{
 "cells": [
  {
   "cell_type": "code",
   "execution_count": 1,
   "id": "ed4096f5-520b-45b3-81d2-15ff92300dc2",
   "metadata": {},
   "outputs": [],
   "source": [
    "import os, sys\n",
    "import glob\n",
    "import json\n",
    "import subprocess\n",
    "\n",
    "import pandas as pd"
   ]
  },
  {
   "cell_type": "markdown",
   "id": "58d7f228-282a-4c85-b035-b7ccef2e45d1",
   "metadata": {},
   "source": [
    "## Create example stimuli to source\n",
    "\n",
    "Below we go through each .mp4 file at the path ```stim_dir``` and use [ffmpeg (a video processing tool](https://www.ffmpeg.org/) to cut 15 seconds of the video (starting at minute 2 and going 15 seconds forward)."
   ]
  },
  {
   "cell_type": "code",
   "execution_count": 11,
   "id": "9b260d79-d7a0-4507-acb4-50a231e2fe78",
   "metadata": {},
   "outputs": [
    {
     "name": "stderr",
     "output_type": "stream",
     "text": [
      "ffmpeg version 4.4.1 Copyright (c) 2000-2021 the FFmpeg developers\n",
      "  built with gcc 10.3.0 (conda-forge gcc 10.3.0-16)\n",
      "  configuration: --prefix=/home/conda/feedstock_root/build_artifacts/ffmpeg_1653050584957/_h_env_placehold_placehold_placehold_placehold_placehold_placehold_placehold_placehold_placehold_placehold_placehold_placehold_placehold_placehold_placehold_placehold_placehold_placehold_plac --cc=/home/conda/feedstock_root/build_artifacts/ffmpeg_1653050584957/_build_env/bin/x86_64-conda-linux-gnu-cc --disable-doc --disable-openssl --enable-avresample --enable-demuxer=dash --enable-gnutls --enable-gpl --enable-hardcoded-tables --enable-libfreetype --enable-libopenh264 --enable-vaapi --enable-libx264 --enable-libx265 --enable-libaom --enable-libsvtav1 --enable-libxml2 --enable-libvpx --enable-pic --enable-pthreads --enable-shared --disable-static --enable-version3 --enable-zlib --enable-libmp3lame --pkg-config=/home/conda/feedstock_root/build_artifacts/ffmpeg_1653050584957/_build_env/bin/pkg-config\n",
      "  libavutil      56. 70.100 / 56. 70.100\n",
      "  libavcodec     58.134.100 / 58.134.100\n",
      "  libavformat    58. 76.100 / 58. 76.100\n",
      "  libavdevice    58. 13.100 / 58. 13.100\n",
      "  libavfilter     7.110.100 /  7.110.100\n",
      "  libavresample   4.  0.  0 /  4.  0.  0\n",
      "  libswscale      5.  9.100 /  5.  9.100\n",
      "  libswresample   3.  9.100 /  3.  9.100\n",
      "  libpostproc    55.  9.100 / 55.  9.100\n",
      "Input #0, mov,mp4,m4a,3gp,3g2,mj2, from '/dartfs/rc/lab/F/FinnLab/datasets/IBC/stimuli/raiders/raiders01.mp4':\n",
      "  Metadata:\n",
      "    major_brand     : isom\n",
      "    minor_version   : 512\n",
      "    compatible_brands: isomiso2avc1mp41\n",
      "    encoder         : Lavf60.3.100\n",
      "  Duration: 00:12:18.92, start: 0.000000, bitrate: 2094 kb/s\n",
      "  Stream #0:0(und): Video: h264 (High) (avc1 / 0x31637661), yuv420p, 1024x636 [SAR 2742:1931 DAR 233984:102343], 1961 kb/s, SAR 13568:9555 DAR 65536:28665, 25 fps, 25 tbr, 12800 tbn, 50 tbc (default)\n",
      "    Metadata:\n",
      "      handler_name    : VideoHandler\n",
      "      vendor_id       : [0][0][0][0]\n",
      "      encoder         : Lavc60.3.100 libx264\n",
      "  Stream #0:1(und): Audio: aac (LC) (mp4a / 0x6134706D), 48000 Hz, stereo, fltp, 128 kb/s (default)\n",
      "    Metadata:\n",
      "      handler_name    : SoundHandler\n",
      "      vendor_id       : [0][0][0][0]\n",
      "Output #0, mp4, to '/dartfs/rc/lab/F/FinnLab/dallas/online-experiments/continuous-rater/stimuli/raiders01_cut.mp4':\n",
      "  Metadata:\n",
      "    major_brand     : isom\n",
      "    minor_version   : 512\n",
      "    compatible_brands: isomiso2avc1mp41\n",
      "    encoder         : Lavf58.76.100\n",
      "  Stream #0:0(und): Video: h264 (High) (avc1 / 0x31637661), yuv420p, 1024x636 [SAR 13568:9555 DAR 65536:28665], q=2-31, 1961 kb/s, 25 fps, 25 tbr, 12800 tbn, 12800 tbc (default)\n",
      "    Metadata:\n",
      "      handler_name    : VideoHandler\n",
      "      vendor_id       : [0][0][0][0]\n",
      "      encoder         : Lavc60.3.100 libx264\n",
      "  Stream #0:1(und): Audio: aac (LC) (mp4a / 0x6134706D), 48000 Hz, stereo, fltp, 128 kb/s (default)\n",
      "    Metadata:\n",
      "      handler_name    : SoundHandler\n",
      "      vendor_id       : [0][0][0][0]\n",
      "Stream mapping:\n",
      "  Stream #0:0 -> #0:0 (copy)\n",
      "  Stream #0:1 -> #0:1 (copy)\n",
      "Press [q] to stop, [?] for help\n",
      "frame=  204 fps=0.0 q=-1.0 Lsize=    1687kB time=00:00:14.99 bitrate= 921.7kbits/s speed= 429x    \n",
      "video:1444kB audio:235kB subtitle:0kB other streams:0kB global headers:0kB muxing overhead: 0.497569%\n",
      "ffmpeg version 4.4.1 Copyright (c) 2000-2021 the FFmpeg developers\n",
      "  built with gcc 10.3.0 (conda-forge gcc 10.3.0-16)\n",
      "  configuration: --prefix=/home/conda/feedstock_root/build_artifacts/ffmpeg_1653050584957/_h_env_placehold_placehold_placehold_placehold_placehold_placehold_placehold_placehold_placehold_placehold_placehold_placehold_placehold_placehold_placehold_placehold_placehold_placehold_plac --cc=/home/conda/feedstock_root/build_artifacts/ffmpeg_1653050584957/_build_env/bin/x86_64-conda-linux-gnu-cc --disable-doc --disable-openssl --enable-avresample --enable-demuxer=dash --enable-gnutls --enable-gpl --enable-hardcoded-tables --enable-libfreetype --enable-libopenh264 --enable-vaapi --enable-libx264 --enable-libx265 --enable-libaom --enable-libsvtav1 --enable-libxml2 --enable-libvpx --enable-pic --enable-pthreads --enable-shared --disable-static --enable-version3 --enable-zlib --enable-libmp3lame --pkg-config=/home/conda/feedstock_root/build_artifacts/ffmpeg_1653050584957/_build_env/bin/pkg-config\n",
      "  libavutil      56. 70.100 / 56. 70.100\n",
      "  libavcodec     58.134.100 / 58.134.100\n",
      "  libavformat    58. 76.100 / 58. 76.100\n",
      "  libavdevice    58. 13.100 / 58. 13.100\n",
      "  libavfilter     7.110.100 /  7.110.100\n",
      "  libavresample   4.  0.  0 /  4.  0.  0\n",
      "  libswscale      5.  9.100 /  5.  9.100\n",
      "  libswresample   3.  9.100 /  3.  9.100\n",
      "  libpostproc    55.  9.100 / 55.  9.100\n",
      "Input #0, mov,mp4,m4a,3gp,3g2,mj2, from '/dartfs/rc/lab/F/FinnLab/datasets/IBC/stimuli/raiders/raiders02.mp4':\n",
      "  Metadata:\n",
      "    major_brand     : isom\n",
      "    minor_version   : 512\n",
      "    compatible_brands: isomiso2avc1mp41\n",
      "    encoder         : Lavf60.3.100\n",
      "  Duration: 00:09:43.60, start: 0.000000, bitrate: 1467 kb/s\n",
      "  Stream #0:0(und): Video: h264 (High) (avc1 / 0x31637661), yuv420p, 1024x636 [SAR 2742:1931 DAR 233984:102343], 1333 kb/s, SAR 13568:9555 DAR 65536:28665, 25 fps, 25 tbr, 12800 tbn, 50 tbc (default)\n",
      "    Metadata:\n",
      "      handler_name    : VideoHandler\n",
      "      vendor_id       : [0][0][0][0]\n",
      "      encoder         : Lavc60.3.100 libx264\n",
      "  Stream #0:1(und): Audio: aac (LC) (mp4a / 0x6134706D), 48000 Hz, stereo, fltp, 128 kb/s (default)\n",
      "    Metadata:\n",
      "      handler_name    : SoundHandler\n",
      "      vendor_id       : [0][0][0][0]\n",
      "Output #0, mp4, to '/dartfs/rc/lab/F/FinnLab/dallas/online-experiments/continuous-rater/stimuli/raiders02_cut.mp4':\n",
      "  Metadata:\n",
      "    major_brand     : isom\n",
      "    minor_version   : 512\n",
      "    compatible_brands: isomiso2avc1mp41\n",
      "    encoder         : Lavf58.76.100\n",
      "  Stream #0:0(und): Video: h264 (High) (avc1 / 0x31637661), yuv420p, 1024x636 [SAR 13568:9555 DAR 65536:28665], q=2-31, 1333 kb/s, 25 fps, 25 tbr, 12800 tbn, 12800 tbc (default)\n",
      "    Metadata:\n",
      "      handler_name    : VideoHandler\n",
      "      vendor_id       : [0][0][0][0]\n",
      "      encoder         : Lavc60.3.100 libx264\n",
      "  Stream #0:1(und): Audio: aac (LC) (mp4a / 0x6134706D), 48000 Hz, stereo, fltp, 128 kb/s (default)\n",
      "    Metadata:\n",
      "      handler_name    : SoundHandler\n",
      "      vendor_id       : [0][0][0][0]\n",
      "Stream mapping:\n",
      "  Stream #0:0 -> #0:0 (copy)\n",
      "  Stream #0:1 -> #0:1 (copy)\n",
      "Press [q] to stop, [?] for help\n",
      "frame=  291 fps=0.0 q=-1.0 Lsize=    1888kB time=00:00:14.99 bitrate=1031.3kbits/s speed= 258x    \n",
      "video:1643kB audio:235kB subtitle:0kB other streams:0kB global headers:0kB muxing overhead: 0.547295%\n",
      "ffmpeg version 4.4.1 Copyright (c) 2000-2021 the FFmpeg developers\n",
      "  built with gcc 10.3.0 (conda-forge gcc 10.3.0-16)\n",
      "  configuration: --prefix=/home/conda/feedstock_root/build_artifacts/ffmpeg_1653050584957/_h_env_placehold_placehold_placehold_placehold_placehold_placehold_placehold_placehold_placehold_placehold_placehold_placehold_placehold_placehold_placehold_placehold_placehold_placehold_plac --cc=/home/conda/feedstock_root/build_artifacts/ffmpeg_1653050584957/_build_env/bin/x86_64-conda-linux-gnu-cc --disable-doc --disable-openssl --enable-avresample --enable-demuxer=dash --enable-gnutls --enable-gpl --enable-hardcoded-tables --enable-libfreetype --enable-libopenh264 --enable-vaapi --enable-libx264 --enable-libx265 --enable-libaom --enable-libsvtav1 --enable-libxml2 --enable-libvpx --enable-pic --enable-pthreads --enable-shared --disable-static --enable-version3 --enable-zlib --enable-libmp3lame --pkg-config=/home/conda/feedstock_root/build_artifacts/ffmpeg_1653050584957/_build_env/bin/pkg-config\n",
      "  libavutil      56. 70.100 / 56. 70.100\n",
      "  libavcodec     58.134.100 / 58.134.100\n",
      "  libavformat    58. 76.100 / 58. 76.100\n",
      "  libavdevice    58. 13.100 / 58. 13.100\n",
      "  libavfilter     7.110.100 /  7.110.100\n",
      "  libavresample   4.  0.  0 /  4.  0.  0\n",
      "  libswscale      5.  9.100 /  5.  9.100\n",
      "  libswresample   3.  9.100 /  3.  9.100\n",
      "  libpostproc    55.  9.100 / 55.  9.100\n",
      "Input #0, mov,mp4,m4a,3gp,3g2,mj2, from '/dartfs/rc/lab/F/FinnLab/datasets/IBC/stimuli/raiders/raiders03.mp4':\n",
      "  Metadata:\n",
      "    major_brand     : isom\n",
      "    minor_version   : 512\n",
      "    compatible_brands: isomiso2avc1mp41\n",
      "    encoder         : Lavf60.3.100\n",
      "  Duration: 00:10:18.20, start: 0.000000, bitrate: 1537 kb/s\n",
      "  Stream #0:0(und): Video: h264 (High) (avc1 / 0x31637661), yuv420p, 1024x636 [SAR 2742:1931 DAR 233984:102343], 1404 kb/s, SAR 13568:9555 DAR 65536:28665, 25 fps, 25 tbr, 12800 tbn, 50 tbc (default)\n",
      "    Metadata:\n",
      "      handler_name    : VideoHandler\n",
      "      vendor_id       : [0][0][0][0]\n",
      "      encoder         : Lavc60.3.100 libx264\n",
      "  Stream #0:1(und): Audio: aac (LC) (mp4a / 0x6134706D), 48000 Hz, stereo, fltp, 128 kb/s (default)\n",
      "    Metadata:\n",
      "      handler_name    : SoundHandler\n",
      "      vendor_id       : [0][0][0][0]\n",
      "Output #0, mp4, to '/dartfs/rc/lab/F/FinnLab/dallas/online-experiments/continuous-rater/stimuli/raiders03_cut.mp4':\n",
      "  Metadata:\n",
      "    major_brand     : isom\n",
      "    minor_version   : 512\n",
      "    compatible_brands: isomiso2avc1mp41\n",
      "    encoder         : Lavf58.76.100\n",
      "  Stream #0:0(und): Video: h264 (High) (avc1 / 0x31637661), yuv420p, 1024x636 [SAR 13568:9555 DAR 65536:28665], q=2-31, 1404 kb/s, 25 fps, 25 tbr, 12800 tbn, 12800 tbc (default)\n",
      "    Metadata:\n",
      "      handler_name    : VideoHandler\n",
      "      vendor_id       : [0][0][0][0]\n",
      "      encoder         : Lavc60.3.100 libx264\n",
      "  Stream #0:1(und): Audio: aac (LC) (mp4a / 0x6134706D), 48000 Hz, stereo, fltp, 128 kb/s (default)\n",
      "    Metadata:\n",
      "      handler_name    : SoundHandler\n",
      "      vendor_id       : [0][0][0][0]\n",
      "Stream mapping:\n",
      "  Stream #0:0 -> #0:0 (copy)\n",
      "  Stream #0:1 -> #0:1 (copy)\n",
      "Press [q] to stop, [?] for help\n",
      "frame=  315 fps=0.0 q=-1.0 Lsize=    2554kB time=00:00:14.99 bitrate=1394.8kbits/s speed=94.2x    \n",
      "video:2309kB audio:235kB subtitle:0kB other streams:0kB global headers:0kB muxing overhead: 0.395111%\n",
      "ffmpeg version 4.4.1 Copyright (c) 2000-2021 the FFmpeg developers\n",
      "  built with gcc 10.3.0 (conda-forge gcc 10.3.0-16)\n",
      "  configuration: --prefix=/home/conda/feedstock_root/build_artifacts/ffmpeg_1653050584957/_h_env_placehold_placehold_placehold_placehold_placehold_placehold_placehold_placehold_placehold_placehold_placehold_placehold_placehold_placehold_placehold_placehold_placehold_placehold_plac --cc=/home/conda/feedstock_root/build_artifacts/ffmpeg_1653050584957/_build_env/bin/x86_64-conda-linux-gnu-cc --disable-doc --disable-openssl --enable-avresample --enable-demuxer=dash --enable-gnutls --enable-gpl --enable-hardcoded-tables --enable-libfreetype --enable-libopenh264 --enable-vaapi --enable-libx264 --enable-libx265 --enable-libaom --enable-libsvtav1 --enable-libxml2 --enable-libvpx --enable-pic --enable-pthreads --enable-shared --disable-static --enable-version3 --enable-zlib --enable-libmp3lame --pkg-config=/home/conda/feedstock_root/build_artifacts/ffmpeg_1653050584957/_build_env/bin/pkg-config\n",
      "  libavutil      56. 70.100 / 56. 70.100\n",
      "  libavcodec     58.134.100 / 58.134.100\n",
      "  libavformat    58. 76.100 / 58. 76.100\n",
      "  libavdevice    58. 13.100 / 58. 13.100\n",
      "  libavfilter     7.110.100 /  7.110.100\n",
      "  libavresample   4.  0.  0 /  4.  0.  0\n",
      "  libswscale      5.  9.100 /  5.  9.100\n",
      "  libswresample   3.  9.100 /  3.  9.100\n",
      "  libpostproc    55.  9.100 / 55.  9.100\n",
      "Input #0, mov,mp4,m4a,3gp,3g2,mj2, from '/dartfs/rc/lab/F/FinnLab/datasets/IBC/stimuli/raiders/raiders04.mp4':\n",
      "  Metadata:\n",
      "    major_brand     : isom\n",
      "    minor_version   : 512\n",
      "    compatible_brands: isomiso2avc1mp41\n",
      "    encoder         : Lavf60.3.100\n",
      "  Duration: 00:12:27.24, start: 0.000000, bitrate: 2272 kb/s\n",
      "  Stream #0:0(und): Video: h264 (High) (avc1 / 0x31637661), yuv420p, 1024x636 [SAR 2742:1931 DAR 233984:102343], 2138 kb/s, SAR 13568:9555 DAR 65536:28665, 25 fps, 25 tbr, 12800 tbn, 50 tbc (default)\n",
      "    Metadata:\n",
      "      handler_name    : VideoHandler\n",
      "      vendor_id       : [0][0][0][0]\n",
      "      encoder         : Lavc60.3.100 libx264\n",
      "  Stream #0:1(und): Audio: aac (LC) (mp4a / 0x6134706D), 48000 Hz, stereo, fltp, 128 kb/s (default)\n",
      "    Metadata:\n",
      "      handler_name    : SoundHandler\n",
      "      vendor_id       : [0][0][0][0]\n",
      "Output #0, mp4, to '/dartfs/rc/lab/F/FinnLab/dallas/online-experiments/continuous-rater/stimuli/raiders04_cut.mp4':\n",
      "  Metadata:\n",
      "    major_brand     : isom\n",
      "    minor_version   : 512\n",
      "    compatible_brands: isomiso2avc1mp41\n",
      "    encoder         : Lavf58.76.100\n",
      "  Stream #0:0(und): Video: h264 (High) (avc1 / 0x31637661), yuv420p, 1024x636 [SAR 13568:9555 DAR 65536:28665], q=2-31, 2138 kb/s, 25 fps, 25 tbr, 12800 tbn, 12800 tbc (default)\n",
      "    Metadata:\n",
      "      handler_name    : VideoHandler\n",
      "      vendor_id       : [0][0][0][0]\n",
      "      encoder         : Lavc60.3.100 libx264\n",
      "  Stream #0:1(und): Audio: aac (LC) (mp4a / 0x6134706D), 48000 Hz, stereo, fltp, 128 kb/s (default)\n",
      "    Metadata:\n",
      "      handler_name    : SoundHandler\n",
      "      vendor_id       : [0][0][0][0]\n",
      "Stream mapping:\n",
      "  Stream #0:0 -> #0:0 (copy)\n",
      "  Stream #0:1 -> #0:1 (copy)\n",
      "Press [q] to stop, [?] for help\n",
      "frame=  280 fps=0.0 q=-1.0 Lsize=    2455kB time=00:00:14.99 bitrate=1341.0kbits/s speed=84.4x    \n",
      "video:2211kB audio:235kB subtitle:0kB other streams:0kB global headers:0kB muxing overhead: 0.399987%\n",
      "ffmpeg version 4.4.1 Copyright (c) 2000-2021 the FFmpeg developers\n",
      "  built with gcc 10.3.0 (conda-forge gcc 10.3.0-16)\n",
      "  configuration: --prefix=/home/conda/feedstock_root/build_artifacts/ffmpeg_1653050584957/_h_env_placehold_placehold_placehold_placehold_placehold_placehold_placehold_placehold_placehold_placehold_placehold_placehold_placehold_placehold_placehold_placehold_placehold_placehold_plac --cc=/home/conda/feedstock_root/build_artifacts/ffmpeg_1653050584957/_build_env/bin/x86_64-conda-linux-gnu-cc --disable-doc --disable-openssl --enable-avresample --enable-demuxer=dash --enable-gnutls --enable-gpl --enable-hardcoded-tables --enable-libfreetype --enable-libopenh264 --enable-vaapi --enable-libx264 --enable-libx265 --enable-libaom --enable-libsvtav1 --enable-libxml2 --enable-libvpx --enable-pic --enable-pthreads --enable-shared --disable-static --enable-version3 --enable-zlib --enable-libmp3lame --pkg-config=/home/conda/feedstock_root/build_artifacts/ffmpeg_1653050584957/_build_env/bin/pkg-config\n",
      "  libavutil      56. 70.100 / 56. 70.100\n",
      "  libavcodec     58.134.100 / 58.134.100\n",
      "  libavformat    58. 76.100 / 58. 76.100\n",
      "  libavdevice    58. 13.100 / 58. 13.100\n",
      "  libavfilter     7.110.100 /  7.110.100\n",
      "  libavresample   4.  0.  0 /  4.  0.  0\n",
      "  libswscale      5.  9.100 /  5.  9.100\n",
      "  libswresample   3.  9.100 /  3.  9.100\n",
      "  libpostproc    55.  9.100 / 55.  9.100\n",
      "Input #0, mov,mp4,m4a,3gp,3g2,mj2, from '/dartfs/rc/lab/F/FinnLab/datasets/IBC/stimuli/raiders/raiders05.mp4':\n",
      "  Metadata:\n",
      "    major_brand     : isom\n",
      "    minor_version   : 512\n",
      "    compatible_brands: isomiso2avc1mp41\n",
      "    encoder         : Lavf60.3.100\n",
      "  Duration: 00:11:22.68, start: 0.000000, bitrate: 2282 kb/s\n",
      "  Stream #0:0(und): Video: h264 (High) (avc1 / 0x31637661), yuv420p, 1024x636 [SAR 2742:1931 DAR 233984:102343], 2148 kb/s, SAR 13568:9555 DAR 65536:28665, 25 fps, 25 tbr, 12800 tbn, 50 tbc (default)\n",
      "    Metadata:\n",
      "      handler_name    : VideoHandler\n",
      "      vendor_id       : [0][0][0][0]\n",
      "      encoder         : Lavc60.3.100 libx264\n",
      "  Stream #0:1(und): Audio: aac (LC) (mp4a / 0x6134706D), 48000 Hz, stereo, fltp, 128 kb/s (default)\n",
      "    Metadata:\n",
      "      handler_name    : SoundHandler\n",
      "      vendor_id       : [0][0][0][0]\n",
      "Output #0, mp4, to '/dartfs/rc/lab/F/FinnLab/dallas/online-experiments/continuous-rater/stimuli/raiders05_cut.mp4':\n",
      "  Metadata:\n",
      "    major_brand     : isom\n",
      "    minor_version   : 512\n",
      "    compatible_brands: isomiso2avc1mp41\n",
      "    encoder         : Lavf58.76.100\n",
      "  Stream #0:0(und): Video: h264 (High) (avc1 / 0x31637661), yuv420p, 1024x636 [SAR 13568:9555 DAR 65536:28665], q=2-31, 2148 kb/s, 25 fps, 25 tbr, 12800 tbn, 12800 tbc (default)\n",
      "    Metadata:\n",
      "      handler_name    : VideoHandler\n",
      "      vendor_id       : [0][0][0][0]\n",
      "      encoder         : Lavc60.3.100 libx264\n",
      "  Stream #0:1(und): Audio: aac (LC) (mp4a / 0x6134706D), 48000 Hz, stereo, fltp, 128 kb/s (default)\n",
      "    Metadata:\n",
      "      handler_name    : SoundHandler\n",
      "      vendor_id       : [0][0][0][0]\n",
      "Stream mapping:\n",
      "  Stream #0:0 -> #0:0 (copy)\n",
      "  Stream #0:1 -> #0:1 (copy)\n",
      "Press [q] to stop, [?] for help\n",
      "frame=  342 fps=0.0 q=-1.0 Lsize=    2425kB time=00:00:14.99 bitrate=1324.8kbits/s speed= 132x    \n",
      "video:2180kB audio:235kB subtitle:0kB other streams:0kB global headers:0kB muxing overhead: 0.438681%\n",
      "ffmpeg version 4.4.1 Copyright (c) 2000-2021 the FFmpeg developers\n",
      "  built with gcc 10.3.0 (conda-forge gcc 10.3.0-16)\n",
      "  configuration: --prefix=/home/conda/feedstock_root/build_artifacts/ffmpeg_1653050584957/_h_env_placehold_placehold_placehold_placehold_placehold_placehold_placehold_placehold_placehold_placehold_placehold_placehold_placehold_placehold_placehold_placehold_placehold_placehold_plac --cc=/home/conda/feedstock_root/build_artifacts/ffmpeg_1653050584957/_build_env/bin/x86_64-conda-linux-gnu-cc --disable-doc --disable-openssl --enable-avresample --enable-demuxer=dash --enable-gnutls --enable-gpl --enable-hardcoded-tables --enable-libfreetype --enable-libopenh264 --enable-vaapi --enable-libx264 --enable-libx265 --enable-libaom --enable-libsvtav1 --enable-libxml2 --enable-libvpx --enable-pic --enable-pthreads --enable-shared --disable-static --enable-version3 --enable-zlib --enable-libmp3lame --pkg-config=/home/conda/feedstock_root/build_artifacts/ffmpeg_1653050584957/_build_env/bin/pkg-config\n",
      "  libavutil      56. 70.100 / 56. 70.100\n",
      "  libavcodec     58.134.100 / 58.134.100\n",
      "  libavformat    58. 76.100 / 58. 76.100\n",
      "  libavdevice    58. 13.100 / 58. 13.100\n",
      "  libavfilter     7.110.100 /  7.110.100\n",
      "  libavresample   4.  0.  0 /  4.  0.  0\n",
      "  libswscale      5.  9.100 /  5.  9.100\n",
      "  libswresample   3.  9.100 /  3.  9.100\n",
      "  libpostproc    55.  9.100 / 55.  9.100\n",
      "Input #0, mov,mp4,m4a,3gp,3g2,mj2, from '/dartfs/rc/lab/F/FinnLab/datasets/IBC/stimuli/raiders/raiders06.mp4':\n",
      "  Metadata:\n",
      "    major_brand     : isom\n",
      "    minor_version   : 512\n",
      "    compatible_brands: isomiso2avc1mp41\n",
      "    encoder         : Lavf60.3.100\n",
      "  Duration: 00:11:23.00, start: 0.000000, bitrate: 1530 kb/s\n",
      "  Stream #0:0(und): Video: h264 (High) (avc1 / 0x31637661), yuv420p, 1024x636 [SAR 2742:1931 DAR 233984:102343], 1396 kb/s, SAR 13568:9555 DAR 65536:28665, 25 fps, 25 tbr, 12800 tbn, 50 tbc (default)\n",
      "    Metadata:\n",
      "      handler_name    : VideoHandler\n",
      "      vendor_id       : [0][0][0][0]\n",
      "      encoder         : Lavc60.3.100 libx264\n",
      "  Stream #0:1(und): Audio: aac (LC) (mp4a / 0x6134706D), 48000 Hz, stereo, fltp, 128 kb/s (default)\n",
      "    Metadata:\n",
      "      handler_name    : SoundHandler\n",
      "      vendor_id       : [0][0][0][0]\n",
      "Output #0, mp4, to '/dartfs/rc/lab/F/FinnLab/dallas/online-experiments/continuous-rater/stimuli/raiders06_cut.mp4':\n",
      "  Metadata:\n",
      "    major_brand     : isom\n",
      "    minor_version   : 512\n",
      "    compatible_brands: isomiso2avc1mp41\n",
      "    encoder         : Lavf58.76.100\n",
      "  Stream #0:0(und): Video: h264 (High) (avc1 / 0x31637661), yuv420p, 1024x636 [SAR 13568:9555 DAR 65536:28665], q=2-31, 1396 kb/s, 25 fps, 25 tbr, 12800 tbn, 12800 tbc (default)\n",
      "    Metadata:\n",
      "      handler_name    : VideoHandler\n",
      "      vendor_id       : [0][0][0][0]\n",
      "      encoder         : Lavc60.3.100 libx264\n",
      "  Stream #0:1(und): Audio: aac (LC) (mp4a / 0x6134706D), 48000 Hz, stereo, fltp, 128 kb/s (default)\n",
      "    Metadata:\n",
      "      handler_name    : SoundHandler\n",
      "      vendor_id       : [0][0][0][0]\n",
      "Stream mapping:\n",
      "  Stream #0:0 -> #0:0 (copy)\n",
      "  Stream #0:1 -> #0:1 (copy)\n",
      "Press [q] to stop, [?] for help\n",
      "frame=  186 fps=0.0 q=-1.0 Lsize=    1683kB time=00:00:14.99 bitrate= 919.2kbits/s speed=88.5x    \n",
      "video:1440kB audio:235kB subtitle:0kB other streams:0kB global headers:0kB muxing overhead: 0.468229%\n",
      "ffmpeg version 4.4.1 Copyright (c) 2000-2021 the FFmpeg developers\n",
      "  built with gcc 10.3.0 (conda-forge gcc 10.3.0-16)\n",
      "  configuration: --prefix=/home/conda/feedstock_root/build_artifacts/ffmpeg_1653050584957/_h_env_placehold_placehold_placehold_placehold_placehold_placehold_placehold_placehold_placehold_placehold_placehold_placehold_placehold_placehold_placehold_placehold_placehold_placehold_plac --cc=/home/conda/feedstock_root/build_artifacts/ffmpeg_1653050584957/_build_env/bin/x86_64-conda-linux-gnu-cc --disable-doc --disable-openssl --enable-avresample --enable-demuxer=dash --enable-gnutls --enable-gpl --enable-hardcoded-tables --enable-libfreetype --enable-libopenh264 --enable-vaapi --enable-libx264 --enable-libx265 --enable-libaom --enable-libsvtav1 --enable-libxml2 --enable-libvpx --enable-pic --enable-pthreads --enable-shared --disable-static --enable-version3 --enable-zlib --enable-libmp3lame --pkg-config=/home/conda/feedstock_root/build_artifacts/ffmpeg_1653050584957/_build_env/bin/pkg-config\n",
      "  libavutil      56. 70.100 / 56. 70.100\n",
      "  libavcodec     58.134.100 / 58.134.100\n",
      "  libavformat    58. 76.100 / 58. 76.100\n",
      "  libavdevice    58. 13.100 / 58. 13.100\n",
      "  libavfilter     7.110.100 /  7.110.100\n",
      "  libavresample   4.  0.  0 /  4.  0.  0\n",
      "  libswscale      5.  9.100 /  5.  9.100\n",
      "  libswresample   3.  9.100 /  3.  9.100\n",
      "  libpostproc    55.  9.100 / 55.  9.100\n",
      "Input #0, mov,mp4,m4a,3gp,3g2,mj2, from '/dartfs/rc/lab/F/FinnLab/datasets/IBC/stimuli/raiders/raiders07.mp4':\n",
      "  Metadata:\n",
      "    major_brand     : isom\n",
      "    minor_version   : 512\n",
      "    compatible_brands: isomiso2avc1mp41\n",
      "    encoder         : Lavf60.3.100\n",
      "  Duration: 00:11:29.60, start: 0.000000, bitrate: 2065 kb/s\n",
      "  Stream #0:0(und): Video: h264 (High) (avc1 / 0x31637661), yuv420p, 1024x636 [SAR 2742:1931 DAR 233984:102343], 1931 kb/s, SAR 13568:9555 DAR 65536:28665, 25 fps, 25 tbr, 12800 tbn, 50 tbc (default)\n",
      "    Metadata:\n",
      "      handler_name    : VideoHandler\n",
      "      vendor_id       : [0][0][0][0]\n",
      "      encoder         : Lavc60.3.100 libx264\n",
      "  Stream #0:1(und): Audio: aac (LC) (mp4a / 0x6134706D), 48000 Hz, stereo, fltp, 128 kb/s (default)\n",
      "    Metadata:\n",
      "      handler_name    : SoundHandler\n",
      "      vendor_id       : [0][0][0][0]\n",
      "Output #0, mp4, to '/dartfs/rc/lab/F/FinnLab/dallas/online-experiments/continuous-rater/stimuli/raiders07_cut.mp4':\n",
      "  Metadata:\n",
      "    major_brand     : isom\n",
      "    minor_version   : 512\n",
      "    compatible_brands: isomiso2avc1mp41\n",
      "    encoder         : Lavf58.76.100\n",
      "  Stream #0:0(und): Video: h264 (High) (avc1 / 0x31637661), yuv420p, 1024x636 [SAR 13568:9555 DAR 65536:28665], q=2-31, 1931 kb/s, 25 fps, 25 tbr, 12800 tbn, 12800 tbc (default)\n",
      "    Metadata:\n",
      "      handler_name    : VideoHandler\n",
      "      vendor_id       : [0][0][0][0]\n",
      "      encoder         : Lavc60.3.100 libx264\n",
      "  Stream #0:1(und): Audio: aac (LC) (mp4a / 0x6134706D), 48000 Hz, stereo, fltp, 128 kb/s (default)\n",
      "    Metadata:\n",
      "      handler_name    : SoundHandler\n",
      "      vendor_id       : [0][0][0][0]\n",
      "Stream mapping:\n",
      "  Stream #0:0 -> #0:0 (copy)\n",
      "  Stream #0:1 -> #0:1 (copy)\n",
      "Press [q] to stop, [?] for help\n",
      "frame=  348 fps=0.0 q=-1.0 Lsize=    2415kB time=00:00:14.99 bitrate=1318.9kbits/s speed= 105x    \n",
      "video:2168kB audio:235kB subtitle:0kB other streams:0kB global headers:0kB muxing overhead: 0.484060%\n",
      "ffmpeg version 4.4.1 Copyright (c) 2000-2021 the FFmpeg developers\n",
      "  built with gcc 10.3.0 (conda-forge gcc 10.3.0-16)\n",
      "  configuration: --prefix=/home/conda/feedstock_root/build_artifacts/ffmpeg_1653050584957/_h_env_placehold_placehold_placehold_placehold_placehold_placehold_placehold_placehold_placehold_placehold_placehold_placehold_placehold_placehold_placehold_placehold_placehold_placehold_plac --cc=/home/conda/feedstock_root/build_artifacts/ffmpeg_1653050584957/_build_env/bin/x86_64-conda-linux-gnu-cc --disable-doc --disable-openssl --enable-avresample --enable-demuxer=dash --enable-gnutls --enable-gpl --enable-hardcoded-tables --enable-libfreetype --enable-libopenh264 --enable-vaapi --enable-libx264 --enable-libx265 --enable-libaom --enable-libsvtav1 --enable-libxml2 --enable-libvpx --enable-pic --enable-pthreads --enable-shared --disable-static --enable-version3 --enable-zlib --enable-libmp3lame --pkg-config=/home/conda/feedstock_root/build_artifacts/ffmpeg_1653050584957/_build_env/bin/pkg-config\n",
      "  libavutil      56. 70.100 / 56. 70.100\n",
      "  libavcodec     58.134.100 / 58.134.100\n",
      "  libavformat    58. 76.100 / 58. 76.100\n",
      "  libavdevice    58. 13.100 / 58. 13.100\n",
      "  libavfilter     7.110.100 /  7.110.100\n",
      "  libavresample   4.  0.  0 /  4.  0.  0\n",
      "  libswscale      5.  9.100 /  5.  9.100\n",
      "  libswresample   3.  9.100 /  3.  9.100\n",
      "  libpostproc    55.  9.100 / 55.  9.100\n",
      "Input #0, mov,mp4,m4a,3gp,3g2,mj2, from '/dartfs/rc/lab/F/FinnLab/datasets/IBC/stimuli/raiders/raiders08.mp4':\n",
      "  Metadata:\n",
      "    major_brand     : isom\n",
      "    minor_version   : 512\n",
      "    compatible_brands: isomiso2avc1mp41\n",
      "    encoder         : Lavf60.3.100\n",
      "  Duration: 00:11:36.64, start: 0.000000, bitrate: 2389 kb/s\n",
      "  Stream #0:0(und): Video: h264 (High) (avc1 / 0x31637661), yuv420p, 1024x636 [SAR 2742:1931 DAR 233984:102343], 2255 kb/s, SAR 13568:9555 DAR 65536:28665, 25 fps, 25 tbr, 12800 tbn, 50 tbc (default)\n",
      "    Metadata:\n",
      "      handler_name    : VideoHandler\n",
      "      vendor_id       : [0][0][0][0]\n",
      "      encoder         : Lavc60.3.100 libx264\n",
      "  Stream #0:1(und): Audio: aac (LC) (mp4a / 0x6134706D), 48000 Hz, stereo, fltp, 128 kb/s (default)\n",
      "    Metadata:\n",
      "      handler_name    : SoundHandler\n",
      "      vendor_id       : [0][0][0][0]\n",
      "Output #0, mp4, to '/dartfs/rc/lab/F/FinnLab/dallas/online-experiments/continuous-rater/stimuli/raiders08_cut.mp4':\n",
      "  Metadata:\n",
      "    major_brand     : isom\n",
      "    minor_version   : 512\n",
      "    compatible_brands: isomiso2avc1mp41\n",
      "    encoder         : Lavf58.76.100\n",
      "  Stream #0:0(und): Video: h264 (High) (avc1 / 0x31637661), yuv420p, 1024x636 [SAR 13568:9555 DAR 65536:28665], q=2-31, 2255 kb/s, 25 fps, 25 tbr, 12800 tbn, 12800 tbc (default)\n",
      "    Metadata:\n",
      "      handler_name    : VideoHandler\n",
      "      vendor_id       : [0][0][0][0]\n",
      "      encoder         : Lavc60.3.100 libx264\n",
      "  Stream #0:1(und): Audio: aac (LC) (mp4a / 0x6134706D), 48000 Hz, stereo, fltp, 128 kb/s (default)\n",
      "    Metadata:\n",
      "      handler_name    : SoundHandler\n",
      "      vendor_id       : [0][0][0][0]\n",
      "Stream mapping:\n",
      "  Stream #0:0 -> #0:0 (copy)\n",
      "  Stream #0:1 -> #0:1 (copy)\n",
      "Press [q] to stop, [?] for help\n",
      "frame=  338 fps=0.0 q=-1.0 Lsize=    6297kB time=00:00:14.99 bitrate=3439.5kbits/s speed=54.1x    \n",
      "video:6051kB audio:235kB subtitle:0kB other streams:0kB global headers:0kB muxing overhead: 0.170378%\n",
      "ffmpeg version 4.4.1 Copyright (c) 2000-2021 the FFmpeg developers\n",
      "  built with gcc 10.3.0 (conda-forge gcc 10.3.0-16)\n",
      "  configuration: --prefix=/home/conda/feedstock_root/build_artifacts/ffmpeg_1653050584957/_h_env_placehold_placehold_placehold_placehold_placehold_placehold_placehold_placehold_placehold_placehold_placehold_placehold_placehold_placehold_placehold_placehold_placehold_placehold_plac --cc=/home/conda/feedstock_root/build_artifacts/ffmpeg_1653050584957/_build_env/bin/x86_64-conda-linux-gnu-cc --disable-doc --disable-openssl --enable-avresample --enable-demuxer=dash --enable-gnutls --enable-gpl --enable-hardcoded-tables --enable-libfreetype --enable-libopenh264 --enable-vaapi --enable-libx264 --enable-libx265 --enable-libaom --enable-libsvtav1 --enable-libxml2 --enable-libvpx --enable-pic --enable-pthreads --enable-shared --disable-static --enable-version3 --enable-zlib --enable-libmp3lame --pkg-config=/home/conda/feedstock_root/build_artifacts/ffmpeg_1653050584957/_build_env/bin/pkg-config\n",
      "  libavutil      56. 70.100 / 56. 70.100\n",
      "  libavcodec     58.134.100 / 58.134.100\n",
      "  libavformat    58. 76.100 / 58. 76.100\n",
      "  libavdevice    58. 13.100 / 58. 13.100\n",
      "  libavfilter     7.110.100 /  7.110.100\n",
      "  libavresample   4.  0.  0 /  4.  0.  0\n",
      "  libswscale      5.  9.100 /  5.  9.100\n",
      "  libswresample   3.  9.100 /  3.  9.100\n",
      "  libpostproc    55.  9.100 / 55.  9.100\n",
      "Input #0, mov,mp4,m4a,3gp,3g2,mj2, from '/dartfs/rc/lab/F/FinnLab/datasets/IBC/stimuli/raiders/raiders09.mp4':\n",
      "  Metadata:\n",
      "    major_brand     : isom\n",
      "    minor_version   : 512\n",
      "    compatible_brands: isomiso2avc1mp41\n",
      "    encoder         : Lavf60.3.100\n",
      "  Duration: 00:09:12.64, start: 0.000000, bitrate: 1968 kb/s\n",
      "  Stream #0:0(und): Video: h264 (High) (avc1 / 0x31637661), yuv420p, 1024x636 [SAR 2742:1931 DAR 233984:102343], 1834 kb/s, SAR 13568:9555 DAR 65536:28665, 25 fps, 25 tbr, 12800 tbn, 50 tbc (default)\n",
      "    Metadata:\n",
      "      handler_name    : VideoHandler\n",
      "      vendor_id       : [0][0][0][0]\n",
      "      encoder         : Lavc60.3.100 libx264\n",
      "  Stream #0:1(und): Audio: aac (LC) (mp4a / 0x6134706D), 48000 Hz, stereo, fltp, 128 kb/s (default)\n",
      "    Metadata:\n",
      "      handler_name    : SoundHandler\n",
      "      vendor_id       : [0][0][0][0]\n",
      "Output #0, mp4, to '/dartfs/rc/lab/F/FinnLab/dallas/online-experiments/continuous-rater/stimuli/raiders09_cut.mp4':\n",
      "  Metadata:\n",
      "    major_brand     : isom\n",
      "    minor_version   : 512\n",
      "    compatible_brands: isomiso2avc1mp41\n",
      "    encoder         : Lavf58.76.100\n",
      "  Stream #0:0(und): Video: h264 (High) (avc1 / 0x31637661), yuv420p, 1024x636 [SAR 13568:9555 DAR 65536:28665], q=2-31, 1834 kb/s, 25 fps, 25 tbr, 12800 tbn, 12800 tbc (default)\n",
      "    Metadata:\n",
      "      handler_name    : VideoHandler\n",
      "      vendor_id       : [0][0][0][0]\n",
      "      encoder         : Lavc60.3.100 libx264\n",
      "  Stream #0:1(und): Audio: aac (LC) (mp4a / 0x6134706D), 48000 Hz, stereo, fltp, 128 kb/s (default)\n",
      "    Metadata:\n",
      "      handler_name    : SoundHandler\n",
      "      vendor_id       : [0][0][0][0]\n",
      "Stream mapping:\n",
      "  Stream #0:0 -> #0:0 (copy)\n",
      "  Stream #0:1 -> #0:1 (copy)\n",
      "Press [q] to stop, [?] for help\n",
      "frame=  134 fps=0.0 q=-1.0 Lsize=    1452kB time=00:00:14.99 bitrate= 793.1kbits/s speed=86.8x    \n",
      "video:1211kB audio:235kB subtitle:0kB other streams:0kB global headers:0kB muxing overhead: 0.471315%\n",
      "ffmpeg version 4.4.1 Copyright (c) 2000-2021 the FFmpeg developers\n",
      "  built with gcc 10.3.0 (conda-forge gcc 10.3.0-16)\n",
      "  configuration: --prefix=/home/conda/feedstock_root/build_artifacts/ffmpeg_1653050584957/_h_env_placehold_placehold_placehold_placehold_placehold_placehold_placehold_placehold_placehold_placehold_placehold_placehold_placehold_placehold_placehold_placehold_placehold_placehold_plac --cc=/home/conda/feedstock_root/build_artifacts/ffmpeg_1653050584957/_build_env/bin/x86_64-conda-linux-gnu-cc --disable-doc --disable-openssl --enable-avresample --enable-demuxer=dash --enable-gnutls --enable-gpl --enable-hardcoded-tables --enable-libfreetype --enable-libopenh264 --enable-vaapi --enable-libx264 --enable-libx265 --enable-libaom --enable-libsvtav1 --enable-libxml2 --enable-libvpx --enable-pic --enable-pthreads --enable-shared --disable-static --enable-version3 --enable-zlib --enable-libmp3lame --pkg-config=/home/conda/feedstock_root/build_artifacts/ffmpeg_1653050584957/_build_env/bin/pkg-config\n",
      "  libavutil      56. 70.100 / 56. 70.100\n",
      "  libavcodec     58.134.100 / 58.134.100\n",
      "  libavformat    58. 76.100 / 58. 76.100\n",
      "  libavdevice    58. 13.100 / 58. 13.100\n",
      "  libavfilter     7.110.100 /  7.110.100\n",
      "  libavresample   4.  0.  0 /  4.  0.  0\n",
      "  libswscale      5.  9.100 /  5.  9.100\n",
      "  libswresample   3.  9.100 /  3.  9.100\n",
      "  libpostproc    55.  9.100 / 55.  9.100\n",
      "/dartfs/rc/lab/F/FinnLab/datasets/IBC/stimuli/raiders/whisperx: Is a directory\n"
     ]
    }
   ],
   "source": [
    "stim_dir = '/dartfs/rc/lab/F/FinnLab/datasets/IBC/stimuli/raiders'\n",
    "out_dir = '/dartfs/rc/lab/F/FinnLab/dallas/online-experiments/continuous-rater/stimuli'\n",
    "\n",
    "# get all mp4 files in the directory\n",
    "stim_list = sorted(glob.glob(os.path.join(stim_dir, '*.mp4')))\n",
    "\n",
    "if not os.path.exists(out_dir):\n",
    "    os.makedirs(out_dir)\n",
    "\n",
    "for stim_fn in stim_list:\n",
    "\n",
    "    out_fn = os.path.basename(stim_fn).replace('.mp4', '_cut.mp4')\n",
    "    out_fn = os.path.join(out_dir, out_fn)\n",
    "\n",
    "    subprocess.run(f'ffmpeg -y -i {stim_fn} -ss 0:02:00 -t 0:00:15 -c copy {out_fn}', shell=True)"
   ]
  },
  {
   "cell_type": "markdown",
   "id": "c487bcaf-5332-4b3f-8d47-cf6e58092ebd",
   "metadata": {},
   "source": [
    "## Create JSPsych inputs (participant parameter files)\n",
    "\n",
    "It is easier to customize randomization outside of JSPsych (e.g., for counterbalancing stimuli across participants). Therefore, we start by creating a set of files (one for each participant) that specifies the order in which participants should view the stimuli.\n",
    "\n",
    "We will load this file through javascript and use the parameters specified in the file to setup the experiment [through timeline variables](https://www.jspsych.org/v7/overview/timeline/#timeline-variables)."
   ]
  },
  {
   "cell_type": "code",
   "execution_count": 2,
   "id": "de8063b0-1641-45ea-b585-3e890f3505df",
   "metadata": {},
   "outputs": [
    {
     "ename": "SystemExit",
     "evalue": "0",
     "output_type": "error",
     "traceback": [
      "An exception has occurred, use %tb to see the full traceback.\n",
      "\u001b[0;31mSystemExit\u001b[0m\u001b[0;31m:\u001b[0m 0\n"
     ]
    },
    {
     "name": "stderr",
     "output_type": "stream",
     "text": [
      "/dartfs/rc/lab/F/FinnLab/tommy/conda/envs/dark_matter/lib/python3.9/site-packages/IPython/core/interactiveshell.py:3534: UserWarning: To exit: use 'exit', 'quit', or Ctrl-D.\n",
      "  warn(\"To exit: use 'exit', 'quit', or Ctrl-D.\", stacklevel=1)\n"
     ]
    }
   ],
   "source": [
    "# make 10 subjects worth of files\n",
    "N_SUBS = 10\n",
    "TASK = 'continuous-rater'\n",
    "\n",
    "base_dir = '/dartfs/rc/lab/F/FinnLab/dallas/continuous-rater/'\n",
    "stim_dir = os.path.join(base_dir, 'stimuli')\n",
    "orders_dir = os.path.join(base_dir, 'presentation-orders')\n",
    "\n",
    "# make the directory to write out json files\n",
    "if not os.path.exists(orders_dir):\n",
    "    os.makedirs(orders_dir)\n",
    "\n",
    "# find all mp4 files in the path stim dir\n",
    "stim_list = glob.glob(os.path.join(stim_dir, '*.mp4'))\n",
    "stim_list = stim_list[:2] # only use 2 stimuli for the moment\n",
    "\n",
    "# create a dataframe to hold experiment information\n",
    "df = pd.DataFrame(stim_list, columns=['stimulus'])\n",
    "\n",
    "# randomize the order of stimulus for each subject (not doing any form of counter balancing)\n",
    "for i in range(N_SUBS):\n",
    "    df_sub = df.sample(len(df)).reset_index(drop=True)\n",
    "\n",
    "    # save the file out\n",
    "    sub_fn = os.path.join(orders_dir, f'sub-{str(i).zfill(3)}_{TASK}.json')\n",
    "    df_sub.to_json(sub_fn, orient='records')"
   ]
  },
  {
   "cell_type": "markdown",
   "id": "b99b201b-e7a4-4a40-a6db-057b458231bc",
   "metadata": {
    "jp-MarkdownHeadingCollapsed": true
   },
   "source": [
    "# How to create a JSPsych experiment\n",
    "\n",
    "**IGNORE FOR NOW**"
   ]
  },
  {
   "cell_type": "markdown",
   "id": "06970855-9cdc-4cd5-9826-b90493bc77ed",
   "metadata": {
    "jp-MarkdownHeadingCollapsed": true
   },
   "source": [
    "## (2) Create an experiment tracker\n",
    "\n",
    "**IGNORE** Not needed immediately! \n",
    "\n",
    "The tracker serves to log when a participant file has been used, and prevents multiple particpants from using the same file. This tracker file can also be updated in case there is a problem with certain participants' data."
   ]
  },
  {
   "cell_type": "markdown",
   "id": "00c03167-ce2f-4245-89f9-8a74076f95d9",
   "metadata": {
    "jp-MarkdownHeadingCollapsed": true
   },
   "source": [
    "## (3) Adding experiment structure to participant level files"
   ]
  },
  {
   "cell_type": "code",
   "execution_count": null,
   "id": "2ad8c3e1-0766-405d-9a6e-920621018c7d",
   "metadata": {},
   "outputs": [],
   "source": [
    "global_parameters = {\n",
    "    'output_path': \"/dartfs/rc/lab/F/FinnLab/tommy/jspsych_experiments/data/\",\n",
    "    'closing_url': CLOSING_URL,\n",
    "    'num_experiments': 1,\n",
    "    \"current_experiment\": 0\n",
    "}\n",
    "\n",
    "# experiment_parameters = {\n",
    "#     \"experiment_name\": EXPERIMENT_NAME,\n",
    "#     \"experiment_version\": p.experiment_version,\n",
    "#     \"task_name\": p.task,\n",
    "#     \"experiment_url\": os.path.join(URL_BASE, \"experiments/next-word-prediction/next-word-prediction.html\")\n",
    "# }"
   ]
  }
 ],
 "metadata": {
  "kernelspec": {
   "display_name": "Python 3 (ipykernel)",
   "language": "python",
   "name": "python3"
  },
  "language_info": {
   "codemirror_mode": {
    "name": "ipython",
    "version": 3
   },
   "file_extension": ".py",
   "mimetype": "text/x-python",
   "name": "python",
   "nbconvert_exporter": "python",
   "pygments_lexer": "ipython3",
   "version": "3.9.19"
  }
 },
 "nbformat": 4,
 "nbformat_minor": 5
}
